<svg width="260" height="294" viewBox="0 0 260 294" fill="none" xmlns="http://www.w3.org/2000/svg">
    <g opacity="0.05">
        <path d="M231.569 308.192H250.031V288.962H231.569V308.192Z" fill="#29504D" />
        <path d="M185.415 308.192H203.877V288.962H185.415V308.192Z" fill="#29504D" />
        <path d="M139.262 308.192H157.723V288.962H139.262V308.192Z" fill="#29504D" />
        <path d="M93.1078 308.192H111.569V288.962H93.1078V308.192Z" fill="#29504D" />
        <path d="M231.569 250.5H250.031V231.269H231.569V250.5Z" fill="#29504D" />
        <path d="M185.415 250.5H203.877V231.269H185.415V250.5Z" fill="#29504D" />
        <path d="M139.262 250.5H157.723V231.269H139.262V250.5Z" fill="#29504D" />
        <path d="M93.1078 250.5H111.569V231.269H93.1078V250.5Z" fill="#29504D" />
        <path d="M46.954 250.5H65.4155V231.269H46.954V250.5Z" fill="#29504D" />
        <path d="M0.799936 250.5H19.2615L19.2615 231.269H0.799936L0.799936 250.5Z" fill="#29504D" />
        <path d="M231.569 192.808H250.031V173.577H231.569V192.808Z" fill="#29504D" />
        <path d="M185.415 192.808H203.877V173.577H185.415V192.808Z" fill="#29504D" />
        <path d="M139.262 192.808H157.723V173.577H139.262V192.808Z" fill="#29504D" />
        <path d="M93.1078 192.808H111.569V173.577H93.1078V192.808Z" fill="#29504D" />
        <path d="M231.569 135.115H250.031V115.885H231.569V135.115Z" fill="#29504D" />
        <path d="M185.415 135.115H203.877V115.885H185.415V135.115Z" fill="#29504D" />
        <path d="M139.262 135.115H157.723V115.885H139.262V135.115Z" fill="#29504D" />
        <path d="M93.1078 135.115H111.569V115.885H93.1078V135.115Z" fill="#29504D" />
        <path d="M46.954 135.115H65.4155V115.885H46.954V135.115Z" fill="#29504D" />
        <path d="M0.799936 135.115H19.2615L19.2615 115.885H0.799936L0.799936 135.115Z" fill="#29504D" />
        <path d="M231.569 77.4231H250.031V58.1923H231.569V77.4231Z" fill="#29504D" />
        <path d="M185.415 77.4231H203.877V58.1923H185.415V77.4231Z" fill="#29504D" />
        <path d="M139.262 77.4231H157.723V58.1923H139.262V77.4231Z" fill="#29504D" />
        <path d="M93.1078 77.4231H111.569V58.1923H93.1078V77.4231Z" fill="#29504D" />
        <path d="M231.569 19.7308L250.031 19.7308V0.500067L231.569 0.500067V19.7308Z" fill="#29504D" />
        <path d="M185.415 19.7308L203.877 19.7308V0.500067L185.415 0.500067V19.7308Z" fill="#29504D" />
        <path d="M139.262 19.7308L157.723 19.7308V0.500067L139.262 0.500067V19.7308Z" fill="#29504D" />
        <path d="M93.1078 19.7308L111.569 19.7308V0.500067L93.1078 0.500067V19.7308Z" fill="#29504D" />
    </g>
</svg>